<svg viewBox="0 0 900 620" xmlns="http://www.w3.org/2000/svg" font-family="Segoe UI, Arial, sans-serif">
  <rect width="900" height="620" fill="#0f1117"/>
  <text x="450" y="38" fill="#e6edf3" font-size="22" font-weight="700" text-anchor="middle">TRACE - Typed Read-only Artifact Citation Engine</text>
  <text x="450" y="60" fill="#8b949e" font-size="13" text-anchor="middle">Approach #2: Custom MCP Server + verification &amp; self-correction loop</text>

  <!-- legend -->
  <rect x="600" y="78" width="14" height="14" fill="#1f6feb"/>
  <text x="620" y="90" fill="#c9d1d9" font-size="12">data flow</text>
  <rect x="690" y="78" width="14" height="14" fill="none" stroke="#f85149" stroke-width="2" stroke-dasharray="4 3"/>
  <text x="710" y="90" fill="#c9d1d9" font-size="12">architectural trust boundary</text>

  <!-- artifacts -->
  <rect x="330" y="100" width="240" height="48" rx="8" fill="#161b22" stroke="#30363d"/>
  <text x="450" y="122" fill="#e6edf3" font-size="14" font-weight="600" text-anchor="middle">Case artifacts (read-only)</text>
  <text x="450" y="139" fill="#8b949e" font-size="11" text-anchor="middle">AmCache · $MFT · Prefetch · EVTX</text>

  <!-- boundary 1 around parsers -->
  <rect x="300" y="170" width="300" height="78" rx="10" fill="none" stroke="#f85149" stroke-width="2" stroke-dasharray="6 4"/>
  <rect x="320" y="182" width="260" height="54" rx="8" fill="#161b22" stroke="#30363d"/>
  <text x="450" y="204" fill="#e6edf3" font-size="14" font-weight="600" text-anchor="middle">server/parsers.py - typed tools</text>
  <text x="450" y="222" fill="#7ee787" font-size="11" text-anchor="middle">opens files 'r' only · no write/move/delete</text>

  <!-- mcp server -->
  <rect x="320" y="270" width="260" height="60" rx="8" fill="#161b22" stroke="#30363d"/>
  <text x="450" y="292" fill="#e6edf3" font-size="14" font-weight="600" text-anchor="middle">server/trace_server.py - MCP server</text>
  <text x="450" y="310" fill="#7ee787" font-size="11" text-anchor="middle">exposes ONLY 5 typed tools</text>
  <text x="450" y="324" fill="#f0883e" font-size="11" text-anchor="middle">no execute_shell · no write_file · no delete</text>

  <!-- loop -->
  <rect x="300" y="352" width="300" height="64" rx="8" fill="#161b22" stroke="#30363d"/>
  <text x="450" y="374" fill="#e6edf3" font-size="14" font-weight="600" text-anchor="middle">agent/loop.py - self-correcting loop</text>
  <text x="450" y="392" fill="#8b949e" font-size="11" text-anchor="middle">plan → analyze → reason → verify → self-correct</text>
  <text x="450" y="408" fill="#f0883e" font-size="11" text-anchor="middle">hard cap: --max-iterations</text>

  <!-- boundary 2 verifier -->
  <rect x="300" y="438" width="300" height="78" rx="10" fill="none" stroke="#f85149" stroke-width="2" stroke-dasharray="6 4"/>
  <rect x="320" y="450" width="260" height="54" rx="8" fill="#161b22" stroke="#30363d"/>
  <text x="450" y="472" fill="#e6edf3" font-size="14" font-weight="600" text-anchor="middle">agent/verifier.py - citation check</text>
  <text x="450" y="490" fill="#7ee787" font-size="11" text-anchor="middle">reportable only if citation == raw evidence</text>

  <!-- outputs -->
  <rect x="180" y="546" width="250" height="52" rx="8" fill="#161b22" stroke="#30363d"/>
  <text x="305" y="568" fill="#e6edf3" font-size="13" font-weight="600" text-anchor="middle">Verified findings + citations</text>
  <text x="305" y="585" fill="#8b949e" font-size="11" text-anchor="middle">UNVERIFIED claims dropped</text>

  <rect x="470" y="546" width="250" height="52" rx="8" fill="#161b22" stroke="#30363d"/>
  <text x="595" y="568" fill="#e6edf3" font-size="13" font-weight="600" text-anchor="middle">logs/execution_log.jsonl</text>
  <text x="595" y="585" fill="#8b949e" font-size="11" text-anchor="middle">timestamps · token usage · audit trail</text>

  <!-- arrows -->
  <g stroke="#1f6feb" stroke-width="2" fill="none" marker-end="url(#arr)">
    <line x1="450" y1="148" x2="450" y2="180"/>
    <line x1="450" y1="236" x2="450" y2="270"/>
    <line x1="450" y1="330" x2="450" y2="352"/>
    <line x1="450" y1="416" x2="450" y2="450"/>
    <line x1="430" y1="504" x2="330" y2="546"/>
    <line x1="470" y1="504" x2="570" y2="546"/>
  </g>
  <!-- self-correct feedback -->
  <path d="M600 482 C 680 470, 680 384, 600 384" stroke="#d29922" stroke-width="2" fill="none" marker-end="url(#arr2)"/>
  <text x="690" y="436" fill="#d29922" font-size="11" text-anchor="middle">re-run on</text>
  <text x="690" y="450" fill="#d29922" font-size="11" text-anchor="middle">dropped claim</text>

  <defs>
    <marker id="arr" markerWidth="10" markerHeight="10" refX="8" refY="3" orient="auto"><path d="M0,0 L8,3 L0,6 Z" fill="#1f6feb"/></marker>
    <marker id="arr2" markerWidth="10" markerHeight="10" refX="8" refY="3" orient="auto"><path d="M0,0 L8,3 L0,6 Z" fill="#d29922"/></marker>
  </defs>
</svg>
